<svg width="211" height="38" viewBox="0 0 211 38" xmlns="http://www.w3.org/2000/svg"><path d="M20.081 19.566v-7.002h1.53c2.106 0 3.258 1.35 3.258 3.51 0 2.142-1.152 3.492-3.258 3.492zM17.795 21.6h3.906c3.348 0 5.454-2.16 5.454-5.526 0-3.366-2.106-5.526-5.454-5.526h-3.906zm13.104-8.046h-2.232V21.6h2.232zm.198-2.322c0-.738-.612-1.278-1.314-1.278-.72 0-1.332.54-1.332 1.278 0 .756.612 1.278 1.332 1.278.702 0 1.314-.522 1.314-1.278zm1.404 9.738c.684.522 1.782.81 2.844.81 1.89 0 3.312-.864 3.312-2.484 0-1.296-.702-2.016-2.232-2.448l-.9-.27c-.558-.18-.864-.324-.864-.756 0-.45.468-.684 1.08-.684.918 0 1.746.414 2.466.99v-2.034c-.72-.468-1.548-.72-2.574-.72-1.8 0-3.15.954-3.15 2.52 0 1.386.882 2.052 2.286 2.43l.774.216c.558.18.918.342.918.792 0 .486-.522.684-1.188.684-.882 0-1.998-.414-2.772-1.116zm7.164-3.384c0 2.574 1.782 4.194 4.068 4.194.81 0 1.602-.18 2.178-.63v-2.016c-.54.468-1.188.72-1.908.72-1.188 0-2.124-.846-2.124-2.268 0-1.44.936-2.268 2.124-2.268.72 0 1.368.234 1.908.72v-2.034c-.576-.45-1.368-.63-2.178-.63-2.286 0-4.068 1.62-4.068 4.212zm15.174 0c0-2.484-1.602-4.212-3.942-4.212s-3.942 1.728-3.942 4.212c0 2.466 1.602 4.194 3.942 4.194s3.942-1.728 3.942-4.194zm-2.214 0c0 1.332-.612 2.304-1.728 2.304s-1.728-.972-1.728-2.304c0-1.35.612-2.322 1.728-2.322s1.728.972 1.728 2.322zm7.848 4.014l3.06-8.046h-2.25L59.465 18.9l-1.854-5.346h-2.34l3.042 8.046zm10.836-3.51v-.72c0-2.376-1.206-3.996-3.546-3.996-2.196 0-3.78 1.746-3.78 4.266 0 2.556 1.674 4.14 4.122 4.14 1.08 0 1.98-.216 2.646-.702v-1.836c-.792.504-1.422.702-2.304.702-1.188 0-2.142-.54-2.322-1.854zm-3.492-2.934c.882 0 1.368.612 1.422 1.476h-3.042c.252-1.008.882-1.476 1.62-1.476zm9.828-1.638c-.126-.072-.468-.144-.846-.144-.792 0-1.458.396-1.8.972v-.792h-2.232V21.6h2.232v-4.986c.162-.738.774-1.134 1.53-1.134.414 0 .81.09 1.116.27zm8.424 1.836h1.71v-1.8h-1.71v-2.178h-2.232v2.178h-1.53v1.8h1.53V21.6h2.232zm3.06 6.246h2.232v-5.094c.18-.702.774-1.116 1.458-1.116.882 0 1.314.576 1.314 1.422V21.6h2.232v-5.256c0-1.782-1.026-2.97-2.844-2.97-.936 0-1.728.414-2.16.918V9.9h-2.232zm15.912-3.51v-.72c0-2.376-1.206-3.996-3.546-3.996-2.196 0-3.78 1.746-3.78 4.266 0 2.556 1.674 4.14 4.122 4.14 1.08 0 1.98-.216 2.646-.702v-1.836c-.792.504-1.422.702-2.304.702-1.188 0-2.142-.54-2.322-1.854zm-3.492-2.934c.882 0 1.368.612 1.422 1.476h-3.042c.252-1.008.882-1.476 1.62-1.476zm10.998 5.778c.36.432 1.152.846 2.016.846 2.34 0 3.672-1.926 3.672-4.194s-1.332-4.212-3.672-4.212c-.864 0-1.656.414-2.016.846v-.666h-2.232V24.57h2.232zm0-4.68c.27-.54.846-.936 1.512-.936 1.206 0 1.926.972 1.926 2.268 0 1.278-.72 2.25-1.926 2.25a1.691 1.691 0 0 1-1.512-.936zm14.562 1.332c0-2.484-1.602-4.212-3.942-4.212s-3.942 1.728-3.942 4.212c0 2.466 1.602 4.194 3.942 4.194s3.942-1.728 3.942-4.194zm-2.214 0c0 1.332-.612 2.304-1.728 2.304s-1.728-.972-1.728-2.304c0-1.35.612-2.322 1.728-2.322s1.728.972 1.728 2.322zm3.312 3.384c.684.522 1.782.81 2.844.81 1.89 0 3.312-.864 3.312-2.484 0-1.296-.702-2.016-2.232-2.448l-.9-.27c-.558-.18-.864-.324-.864-.756 0-.45.468-.684 1.08-.684.918 0 1.746.414 2.466.99v-2.034c-.72-.468-1.548-.72-2.574-.72-1.8 0-3.15.954-3.15 2.52 0 1.386.882 2.052 2.286 2.43l.774.216c.558.18.918.342.918.792 0 .486-.522.684-1.188.684-.882 0-1.998-.414-2.772-1.116zm7.308 0c.684.522 1.782.81 2.844.81 1.89 0 3.312-.864 3.312-2.484 0-1.296-.702-2.016-2.232-2.448l-.9-.27c-.558-.18-.864-.324-.864-.756 0-.45.468-.684 1.08-.684.918 0 1.746.414 2.466.99v-2.034c-.72-.468-1.548-.72-2.574-.72-1.8 0-3.15.954-3.15 2.52 0 1.386.882 2.052 2.286 2.43l.774.216c.558.18.918.342.918.792 0 .486-.522.684-1.188.684-.882 0-1.998-.414-2.772-1.116zm9.882-7.416h-2.232V21.6h2.232zm.198-2.322c0-.738-.612-1.278-1.314-1.278-.72 0-1.332.54-1.332 1.278 0 .756.612 1.278 1.332 1.278.702 0 1.314-.522 1.314-1.278zm3.978 9.702c.36.432 1.152.846 2.016.846 2.34 0 3.654-1.89 3.654-4.194 0-2.304-1.314-4.212-3.654-4.212-.864 0-1.656.414-2.016.846V9.9h-2.25v11.7h2.25zm0-4.68c.252-.54.864-.936 1.512-.936 1.206 0 1.926.972 1.926 2.268 0 1.278-.72 2.25-1.926 2.25-.666 0-1.26-.378-1.512-.936zm9.342-2.7h-2.232V21.6h2.232zm.198-2.322c0-.738-.612-1.278-1.314-1.278-.72 0-1.332.54-1.332 1.278 0 .756.612 1.278 1.332 1.278.702 0 1.314-.522 1.314-1.278zm3.978-1.332h-2.232v11.7h2.232zm4.176 3.654h-2.232V21.6h2.232zm.198-2.322c0-.738-.612-1.278-1.314-1.278-.72 0-1.332.54-1.332 1.278 0 .756.612 1.278 1.332 1.278.702 0 1.314-.522 1.314-1.278zm4.914 4.122h1.71v-1.8h-1.71v-2.178h-2.232v2.178h-1.53v1.8h1.53V21.6h2.232zm5.292-1.8h-2.232V21.6h2.232zm.198-2.322c0-.738-.612-1.278-1.314-1.278-.72 0-1.332.54-1.332 1.278 0 .756.612 1.278 1.332 1.278.702 0 1.314-.522 1.314-1.278zm8.568 6.858v-.72c0-2.376-1.206-3.996-3.546-3.996-2.196 0-3.78 1.746-3.78 4.266 0 2.556 1.674 4.14 4.122 4.14 1.08 0 1.98-.216 2.646-.702v-1.836c-.792.504-1.422.702-2.304.702-1.188 0-2.142-.54-2.322-1.854zm-3.492-2.934c.882 0 1.368.612 1.422 1.476h-3.042c.252-1.008.882-1.476 1.62-1.476zm4.644 5.814c.684.522 1.782.81 2.844.81 1.89 0 3.312-.864 3.312-2.484 0-1.296-.702-2.016-2.232-2.448l-.9-.27c-.558-.18-.864-.324-.864-.756 0-.45.468-.684 1.08-.684.918 0 1.746.414 2.466.99v-2.034c-.72-.468-1.548-.72-2.574-.72-1.8 0-3.15.954-3.15 2.52 0 1.386.882 2.052 2.286 2.43l.774.216c.558.18.918.342.918.792 0 .486-.522.684-1.188.684-.882 0-1.998-.414-2.772-1.116z" fill="#fff"/></svg>