<svg version="1.1" id="Layer_1" xmlns="http://www.w3.org/2000/svg" xmlns:xlink="http://www.w3.org/1999/xlink" x="0px" y="0px" viewBox="0 0 237 42.9" style="enable-background:new 0 0 237 42.9;" xml:space="preserve" width="100%" height="100%" preserveAspectRatio="none"><style type="text/css"> .st0{fill:#00B48D;} .st1{fill:#FFFFFF;} .st2{fill:none;stroke:#FFFFFF;} .st3{fill-rule:evenodd;clip-rule:evenodd;fill:#FFFFFF;} </style><path class="st0" d="M2.2,2.2H33v5.7H2.2V2.2z M0,10.1h35.2V0H0V10.1z"/><path class="st1" d="M2.2,26.8H0V16.7h2.2v4h3.9v-4h2.2v10.1H6.1v-4.2H2.2V26.8z M13.3,26.9c-2.1,0-3.8-1.7-3.8-3.7 c0-2,1.5-3.6,3.5-3.8c2.1,0,3.2,1.4,3.2,3.6v0.8h-4.6c0.2,0.9,1.1,1.5,2,1.4c0.7,0,1.4-0.2,2-0.6h0.1v1.7C15,26.8,14.2,27,13.3,26.9 M11.7,22.4h2.6c0-0.8-0.4-1.3-1.2-1.3C12.4,21.1,11.7,21.6,11.7,22.4C11.7,22.4,11.7,22.4,11.7,22.4 M22,22.6l-1.1,4.2h-1.9 l-2.2-7.1v-0.1h2.1l1.2,4.3l1.1-4.3h1.7l1.1,4.3l1.2-4.3h2v0.1L25,26.8h-1.9L22,22.6z M30.8,27c-1.7,0-2.5-0.7-2.5-2.3v-7.9h2.1v7.8 c0,0.5,0.2,0.7,0.6,0.7c0.2,0,0.3,0,0.5-0.1l0,0v1.8C31.4,26.9,31.1,27,30.8,27 M36,27c-2.1,0-3.8-1.7-3.8-3.7c0-2,1.5-3.6,3.5-3.8 c2.1,0,3.2,1.4,3.2,3.6v0.8h-4.6c0.2,0.9,1.1,1.5,2,1.4c0.7,0,1.4-0.2,2-0.6h0.1v1.7C37.7,26.8,36.8,27,36,27 M34.3,22.4h2.6 c0-0.8-0.4-1.3-1.2-1.3C35,21.1,34.4,21.6,34.3,22.4C34.3,22.4,34.3,22.4,34.3,22.4 M47.6,19.6h1.6v1.7h-1.6v2.9 c0,0.6,0.2,0.9,0.9,0.9c0.2,0,0.4,0,0.6-0.1h0v1.7c-0.4,0.1-0.9,0.2-1.3,0.2c-1.7,0-2.4-0.8-2.4-2.6v-3h-2.8v2.9 c0,0.6,0.2,0.9,0.9,0.9c0.2,0,0.4,0,0.6-0.1h0v1.7C43.9,26.9,43.5,27,43,27c-1.7,0-2.4-0.8-2.4-2.6v-3h-1.1v-1.8h1.1v-2h2.1v2h2.7 v-2h2.1L47.6,19.6z M60.3,20.1c0,2.2-1.5,3.4-3.7,3.4H55v3.3h-2.2V16.7h3.8C58.8,16.7,60.3,17.9,60.3,20.1 M56.4,21.6 c0.9,0,1.6-0.7,1.6-1.5c0-0.9-0.7-1.6-1.6-1.6H55v3.1H56.4z M65.1,26c-0.5,0.6-1.2,0.9-1.9,0.8c-1.3,0.1-2.4-0.8-2.5-2.1 c0-0.1,0-0.2,0-0.2c0-1.4,1.1-2.4,2.8-2.4c0.5,0,1.1,0.1,1.6,0.3v-0.1c0-0.8-0.4-1.1-1.6-1.1c-0.7,0-1.4,0.2-2,0.5h-0.1V20 c0.8-0.4,1.6-0.6,2.5-0.6c2.2,0,3.3,1,3.3,2.8v4.5H65L65.1,26z M65,24.5v-0.6c-0.4-0.2-0.8-0.3-1.2-0.3c-0.7,0-1.1,0.3-1.1,0.8 s0.4,0.9,1,0.9C64.3,25.4,64.8,25,65,24.5 M68.2,23.2c-0.1-2,1.4-3.7,3.4-3.8c0.1,0,0.2,0,0.3,0c0.7,0,1.4,0.2,2,0.5v1.8h-0.1 c-0.5-0.4-1-0.6-1.6-0.6c-1.1,0.1-1.9,1-1.8,2.1c0.1,1,0.8,1.7,1.8,1.8c0.6,0,1.2-0.2,1.6-0.6H74v1.8c-0.6,0.4-1.3,0.6-2,0.5 c-2,0.1-3.7-1.4-3.8-3.4C68.2,23.4,68.2,23.3,68.2,23.2 M77.4,23.5v3.3h-2.1V16.6h2.1v5.8l2.1-2.9H82v0.1l-2.6,3.3l2.6,3.8v0.1h-2.4 L77.4,23.5z M86.9,26c-0.5,0.6-1.2,0.9-1.9,0.8c-1.3,0.1-2.4-0.8-2.5-2.1c0-0.1,0-0.2,0-0.2c0-1.4,1.1-2.4,2.8-2.4 c0.5,0,1.1,0.1,1.6,0.3v-0.1c0-0.8-0.4-1.1-1.6-1.1c-0.7,0-1.4,0.2-2,0.5h-0.1V20c0.8-0.4,1.6-0.6,2.5-0.6c2.2,0,3.4,1,3.4,2.8v4.5 h-2.1L86.9,26z M86.8,24.5v-0.6c-0.4-0.2-0.8-0.3-1.2-0.3c-0.7,0-1.1,0.3-1.1,0.8s0.4,0.9,1,0.9C86.1,25.4,86.6,25,86.8,24.5 M92.5,20.7c0.3-0.7,1-1.2,1.8-1.3c0.2,0,0.5,0,0.7,0.1v2h-0.1c-0.3-0.1-0.6-0.2-0.9-0.2c-0.7,0-1.3,0.5-1.4,1.1v4.1h-2.1v-7.1h2.1 L92.5,20.7z M100.7,26c-0.5,0.6-1.3,1-2.1,0.9c-1.8,0-3-1.7-3-3.8s1.2-3.8,3-3.8c0.8-0.1,1.5,0.2,2.1,0.8v-3.6h2.1v10.1h-2.1 L100.7,26z M100.6,24.3V22c-0.3-0.5-0.8-0.7-1.4-0.7c-0.9,0-1.6,0.7-1.6,1.9s0.6,1.9,1.6,1.9C99.8,25.1,100.3,24.8,100.6,24.3 M0,30 h6.2v1.2H1.4v3.1h4.3v1.3H1.4V39h4.8v1.2H0L0,30z M11.4,32.9c1.6,0,2.5,1,2.5,2.8v4.5h-1.3v-4.5c0.1-0.8-0.4-1.5-1.2-1.6 c-0.1,0-0.2,0-0.3,0c-0.8,0-1.5,0.5-1.8,1.3v4.7H7.9V33h1.3v1C9.7,33.3,10.5,32.8,11.4,32.9 M17.5,33h1.8v1.1h-1.8V38 c0,0.8,0.4,1.1,1.2,1.1c0.2,0,0.4,0,0.6-0.1h0v1.1c-0.3,0.1-0.6,0.1-0.8,0.1c-1.7,0-2.3-0.8-2.3-2.1v-4h-1.2V33h1.2v-1.9h1.3V33z M23.7,40.3c-1.8,0.1-3.4-1.3-3.5-3.2c0-0.1,0-0.3,0-0.4c0-2.2,1.3-3.8,3.2-3.8s3,1.4,3,3.5V37h-4.9c0,1.2,1,2.1,2.2,2.1 c0.1,0,0.1,0,0.2,0c0.7,0,1.4-0.2,2-0.6h0v1.2C25.3,40.1,24.5,40.3,23.7,40.3 M21.6,35.9h3.5c0-1-0.6-1.9-1.7-1.9 C22.5,34.1,21.6,34.9,21.6,35.9 M29.3,34.1c0.3-0.7,1-1.2,1.8-1.2c0.2,0,0.5,0,0.7,0.1v1.3l0,0c-0.3-0.1-0.6-0.1-0.8-0.1 c-0.8,0-1.4,0.5-1.6,1.3v4.6h-1.3V33h1.3L29.3,34.1z M36.3,32.9c2.1,0,3.3,1.7,3.3,3.7s-1.1,3.7-3.3,3.7c-0.8,0-1.5-0.3-2-0.9v3.5 H33V33h1.3v0.8C34.8,33.2,35.6,32.8,36.3,32.9 M36.1,39c1.3,0,2.1-1,2.1-2.5S37.4,34,36.1,34c-0.8,0-1.4,0.4-1.8,1.1v2.7 C34.7,38.6,35.4,39,36.1,39 M42.5,34.1c0.3-0.7,1-1.2,1.8-1.2c0.2,0,0.5,0,0.7,0.1v1.3h0c-0.3-0.1-0.6-0.1-0.8-0.1 c-0.8,0-1.4,0.5-1.6,1.3v4.6h-1.4V33h1.4L42.5,34.1z M46.9,30.1c0.5,0,0.8,0.4,0.8,0.9c0,0.5-0.4,0.8-0.9,0.8 c-0.5,0-0.8-0.4-0.8-0.8C46.1,30.4,46.4,30.1,46.9,30.1 M46.3,32.9h1.3v7.1h-1.3V32.9z M52.4,35.9c1,0.3,2.1,0.7,2.1,2.1 s-1.2,2.2-2.7,2.2c-0.9,0-1.7-0.2-2.4-0.6v-1.2h0.1c0.7,0.5,1.5,0.8,2.3,0.8c0.8,0,1.4-0.3,1.4-0.9s-0.6-0.8-1.7-1.1s-2.1-0.7-2.1-2 c0-1.3,1.1-2.2,2.4-2.2c0.1,0,0.1,0,0.2,0c0.8,0,1.5,0.2,2.2,0.6v1.3l0,0c-0.6-0.5-1.3-0.8-2.1-0.8c-0.8,0-1.3,0.4-1.3,0.9 s0.5,0.7,1.7,1.1 M59.2,40.4c-1.8,0.1-3.4-1.3-3.5-3.2c0-0.1,0-0.3,0-0.4c0-2.2,1.3-3.8,3.3-3.8s3,1.4,3,3.5v0.6h-4.9 c0,1.2,1,2.2,2.2,2.1c0,0,0.1,0,0.1,0c0.7,0,1.4-0.2,2-0.6h0v1.2C60.8,40.2,60.1,40.4,59.2,40.4 M57.2,36h3.5c0-1-0.6-1.9-1.7-1.9 C58,34.2,57.2,35,57.2,36"/><line class="st2" x1="130.3" y1="0" x2="130.3" y2="42.9"/><path class="st3" d="M166.5,17.3l-2.4,6.4h5.1L166.5,17.3z M176.1,29.8h-4.4l-1.4-3.3H163l-1.3,3.3h-4.3l6.6-16.5h4.8L176.1,29.8z"/><polygon class="st3" points="192.1,13.3 195.7,13.3 195.7,29.8 191.6,29.8 191.6,19.5 187.2,24.7 186.6,24.7 182.1,19.5 182.1,29.8 178,29.8 178,13.3 181.6,13.3 186.9,19.4 "/><path class="st3" d="M203,26.8h2.7c4.1,0,5.3-2.8,5.3-5.2c0-2.8-1.5-5.2-5.4-5.2H203V26.8z M206.1,13.3c6,0,9.1,3.7,9.1,8.2 c0,4.7-3,8.2-9.6,8.2h-6.8V13.3H206.1z"/><polygon class="st3" points="231.8,17.2 223.3,17.2 218.2,12 237,12 237,30.8 231.8,25.5 "/><polygon class="st3" points="223.3,25.7 223.4,18.1 218,23.4 218,31 225.8,31 231,25.7 "/></svg>