<svg width="260" height="95" viewBox="0 0 260 95" xmlns="http://www.w3.org/2000/svg"><path d="M3.512 30.432c.672.528 1.76.912 3.088.912 1.904 0 3.312-1.008 3.312-2.688 0-1.36-.672-2.144-2.176-2.72l-1.552-.608c-.912-.352-1.472-.704-1.472-1.536 0-.976.848-1.456 1.936-1.456 1.136 0 2.016.4 2.8 1.024v-1.328c-.736-.512-1.744-.8-2.816-.8-1.696 0-3.152.88-3.152 2.576 0 1.552 1.056 2.208 2.208 2.656l1.44.56c1.04.432 1.568.784 1.568 1.648 0 1.008-.832 1.552-2.096 1.552-1.152 0-2.176-.368-3.088-1.152zm7.68-2.784c0 2.272 1.504 3.696 3.424 3.696.688 0 1.408-.16 1.904-.592v-1.216c-.512.512-1.136.736-1.824.736-1.264 0-2.288-.992-2.288-2.624 0-1.632 1.024-2.624 2.288-2.624.688 0 1.312.224 1.824.736v-1.216c-.496-.432-1.216-.592-1.904-.592-1.92 0-3.424 1.424-3.424 3.696zm10.976-.24c-.304-.272-1.04-.576-1.776-.576-1.52 0-2.704.896-2.704 2.224 0 1.408 1.184 2.272 2.64 2.272.832 0 1.568-.368 1.84-.656v.528h1.168v-4.816c0-1.504-.992-2.432-2.672-2.432-.88 0-1.728.256-2.208.592v1.136c.592-.384 1.232-.624 2.016-.624 1.04 0 1.696.544 1.696 1.424zm0 2.032c-.192.528-.896.88-1.648.88-.864 0-1.696-.4-1.696-1.264 0-.848.832-1.232 1.696-1.232.752 0 1.456.352 1.648.88zm4.416-8.64h-1.2v10.4h1.2zm7.712 7.056v-.432c0-2.08-.992-3.472-2.912-3.472-1.888 0-3.168 1.552-3.168 3.76 0 2.24 1.376 3.632 3.424 3.632.848 0 1.584-.176 2.16-.624v-1.104c-.64.48-1.216.672-2.016.672-1.296 0-2.336-.784-2.384-2.432zm-2.896-2.88c1.152 0 1.68.896 1.728 1.936h-3.664c.224-1.312.992-1.936 1.936-1.936zm10.048.144h1.648v-1.024h-1.648v-1.872h-1.2v1.872H38.76v1.024h1.488v6.08h1.2zm3.104 6.08h1.2v-4.816c.256-.768.976-1.328 1.808-1.328 1.072 0 1.568.688 1.568 1.68V31.2h1.216v-4.656c0-1.552-.88-2.592-2.496-2.592-.912 0-1.68.48-2.096 1.04V20.8h-1.2zm13.392-3.344v-.432c0-2.08-.992-3.472-2.912-3.472-1.888 0-3.168 1.552-3.168 3.76 0 2.24 1.376 3.632 3.424 3.632.848 0 1.584-.176 2.16-.624v-1.104c-.64.48-1.216.672-2.016.672-1.296 0-2.336-.784-2.384-2.432zm-2.896-2.88c1.152 0 1.68.896 1.728 1.936h-3.664c.224-1.312.992-1.936 1.936-1.936zm13.104.112c-.336-.672-1.024-1.136-1.92-1.136-.88 0-1.568.416-1.92.976v-.832h-1.2V31.2h1.2v-4.896c.224-.768.848-1.264 1.568-1.264.912 0 1.344.656 1.344 1.648V31.2h1.2v-4.896c.224-.768.848-1.264 1.568-1.264.912 0 1.344.656 1.344 1.648V31.2h1.216v-4.704c0-1.536-.8-2.544-2.24-2.544-.992 0-1.712.496-2.16 1.136zm12.448 2.56c0-2.176-1.328-3.696-3.264-3.696-1.952 0-3.264 1.52-3.264 3.696s1.312 3.696 3.264 3.696c1.936 0 3.264-1.52 3.264-3.696zm-1.216 0c0 1.552-.768 2.64-2.048 2.64s-2.048-1.088-2.048-2.64.768-2.64 2.048-2.64 2.048 1.088 2.048 2.64zm2.432 2.992c.528.416 1.408.704 2.336.704 1.488 0 2.656-.752 2.656-2.064 0-1.008-.592-1.632-1.664-2l-1.088-.368c-.672-.24-1.056-.432-1.056-1.008 0-.608.608-.928 1.344-.928.864 0 1.52.352 2.112.848v-1.248c-.576-.4-1.312-.624-2.112-.624-1.408 0-2.512.752-2.512 2 0 1.152.72 1.664 1.792 2.016l.976.336c.624.208 1.024.496 1.024 1.024 0 .704-.688.992-1.472.992-.864 0-1.68-.352-2.336-.96zm8.64-5.52h1.648v-1.024h-1.648v-1.872h-1.2v1.872h-1.488v1.024h1.488v6.08h1.2zm11.328 6.08H103V20.8h-1.216v4.128c-.352-.512-1.12-.976-2-.976-2.08 0-3.2 1.696-3.2 3.696 0 2.016 1.12 3.696 3.2 3.696.88 0 1.648-.464 2-.976zm0-2.112c-.368.736-1.072 1.168-1.824 1.168-1.36 0-2.16-1.104-2.16-2.608s.8-2.608 2.16-2.608c.752 0 1.456.432 1.824 1.168zm8.912-1.232v-.432c0-2.08-.992-3.472-2.912-3.472-1.888 0-3.168 1.552-3.168 3.76 0 2.24 1.376 3.632 3.424 3.632.848 0 1.584-.176 2.16-.624v-1.104c-.64.48-1.216.672-2.016.672-1.296 0-2.336-.784-2.384-2.432zm-2.896-2.88c1.152 0 1.68.896 1.728 1.936h-3.664c.224-1.312.992-1.936 1.936-1.936zm9.568.112c-.336-.672-1.024-1.136-1.92-1.136-.88 0-1.568.416-1.92.976v-.832h-1.2V31.2h1.2v-4.896c.224-.768.848-1.264 1.568-1.264.912 0 1.344.656 1.344 1.648V31.2h1.2v-4.896c.224-.768.848-1.264 1.568-1.264.912 0 1.344.656 1.344 1.648V31.2h1.216v-4.704c0-1.536-.8-2.544-2.24-2.544-.992 0-1.712.496-2.16 1.136zm10.384 2.32c-.304-.272-1.04-.576-1.776-.576-1.52 0-2.704.896-2.704 2.224 0 1.408 1.184 2.272 2.64 2.272.832 0 1.568-.368 1.84-.656v.528h1.168v-4.816c0-1.504-.992-2.432-2.672-2.432-.88 0-1.728.256-2.208.592v1.136c.592-.384 1.232-.624 2.016-.624 1.04 0 1.696.544 1.696 1.424zm0 2.032c-.192.528-.896.88-1.648.88-.864 0-1.696-.4-1.696-1.264 0-.848.832-1.232 1.696-1.232.752 0 1.456.352 1.648.88zm3.216 1.76h1.2v-4.816c.256-.768.976-1.328 1.808-1.328 1.072 0 1.568.688 1.568 1.68V31.2h1.216v-4.656c0-1.552-.88-2.592-2.496-2.592-.912 0-1.68.48-2.096 1.04v-.896h-1.2zm12.512 0h1.216V20.8h-1.216v4.128c-.352-.512-1.12-.976-2-.976-2.08 0-3.2 1.696-3.2 3.696 0 2.016 1.12 3.696 3.2 3.696.88 0 1.648-.464 2-.976zm0-2.112c-.368.736-1.072 1.168-1.824 1.168-1.36 0-2.16-1.104-2.16-2.608s.8-2.608 2.16-2.608c.752 0 1.456.432 1.824 1.168zm4.544-4.992h-1.2V31.2h1.2zm.176-2.144a.772.772 0 0 0-.784-.768.768.768 0 0 0-.768.768c0 .416.352.768.768.768a.782.782 0 0 0 .784-.768zm1.968 9.248h1.2v-4.816c.256-.768.976-1.328 1.808-1.328 1.072 0 1.568.688 1.568 1.68V31.2h1.216v-4.656c0-1.552-.88-2.592-2.496-2.592-.912 0-1.68.48-2.096 1.04v-.896h-1.2zm12.464-.48c0 1.52-.992 2.272-2.256 2.272-.832 0-1.584-.224-2.288-.88v1.328c.544.384 1.376.64 2.288.64 1.696 0 3.472-.96 3.472-3.44v-6.544h-1.216v.8c-.352-.496-1.104-.944-1.984-.944-2.08 0-3.168 1.728-3.168 3.632 0 1.904 1.088 3.632 3.168 3.632.88 0 1.632-.464 1.984-.96zm0-1.696c-.368.672-1.04 1.104-1.808 1.104-1.344 0-2.128-1.072-2.128-2.544 0-1.488.784-2.56 2.128-2.56.768 0 1.44.432 1.808 1.104zm11.12 2.176l3.792-9.824h-1.28l-3.088 8.16-3.072-8.16h-1.328l3.792 9.824zm6.56-1.136v-7.568h1.872c2.224 0 3.536 1.488 3.536 3.792s-1.312 3.776-3.536 3.776zm-1.264 1.136h3.152c2.88 0 4.768-1.92 4.768-4.912s-1.888-4.912-4.768-4.912h-3.152zm10.944-9.824h-1.264V31.2h1.264zm10.288 2.72h-1.072l-1.456 5.424-1.568-5.424h-1.2l2.096 7.104h1.168l1.488-5.392 1.472 5.392h1.168l2.096-7.104h-1.168l-1.568 5.424zm11.568 3.552c0-2.176-1.328-3.696-3.264-3.696-1.952 0-3.264 1.52-3.264 3.696s1.312 3.696 3.264 3.696c1.936 0 3.264-1.52 3.264-3.696zm-1.216 0c0 1.552-.768 2.64-2.048 2.64s-2.048-1.088-2.048-2.64.768-2.64 2.048-2.64 2.048 1.088 2.048 2.64zm6.496-3.584c-.128-.064-.384-.112-.688-.112-.784 0-1.456.464-1.76 1.072v-.928h-1.2V31.2h1.2v-4.768c.24-.832.896-1.328 1.648-1.328.304 0 .608.064.8.192zm3.904 3.28l3.488-3.248h-1.552l-3.152 2.992V20.8h-1.2v10.4h1.2v-3.52l3.28 3.52h1.488zm5.904-6.544h-1.2v10.4h1.2zm8.16 6.848c0-2.176-1.328-3.696-3.264-3.696-1.952 0-3.264 1.52-3.264 3.696s1.312 3.696 3.264 3.696c1.936 0 3.264-1.52 3.264-3.696zm-1.216 0c0 1.552-.768 2.64-2.048 2.64s-2.048-1.088-2.048-2.64.768-2.64 2.048-2.64 2.048 1.088 2.048 2.64zm6.8-.24c-.304-.272-1.04-.576-1.776-.576-1.52 0-2.704.896-2.704 2.224 0 1.408 1.184 2.272 2.64 2.272.832 0 1.568-.368 1.84-.656v.528h1.168v-4.816c0-1.504-.992-2.432-2.672-2.432-.88 0-1.728.256-2.208.592v1.136c.592-.384 1.232-.624 2.016-.624 1.04 0 1.696.544 1.696 1.424zm0 2.032c-.192.528-.896.88-1.648.88-.864 0-1.696-.4-1.696-1.264 0-.848.832-1.232 1.696-1.232.752 0 1.456.352 1.648.88zm7.904 1.76h1.216V20.8h-1.216v4.128c-.352-.512-1.12-.976-2-.976-2.08 0-3.2 1.696-3.2 3.696 0 2.016 1.12 3.696 3.2 3.696.88 0 1.648-.464 2-.976zm0-2.112c-.368.736-1.072 1.168-1.824 1.168-1.36 0-2.16-1.104-2.16-2.608s.8-2.608 2.16-2.608c.752 0 1.456.432 1.824 1.168zm2.928 1.552c.528.416 1.408.704 2.336.704 1.488 0 2.656-.752 2.656-2.064 0-1.008-.592-1.632-1.664-2l-1.088-.368c-.672-.24-1.056-.432-1.056-1.008 0-.608.608-.928 1.344-.928.864 0 1.52.352 2.112.848v-1.248c-.576-.4-1.312-.624-2.112-.624-1.408 0-2.512.752-2.512 2 0 1.152.72 1.664 1.792 2.016l.976.336c.624.208 1.024.496 1.024 1.024 0 .704-.688.992-1.472.992-.864 0-1.68-.352-2.336-.96zM18.528 40.016c-.272-.112-.544-.16-.928-.16-1.248 0-2.176.832-2.176 2.256v1.184h-1.2v1.024h1.2v6.08h1.184v-6.08h1.6v-1.024h-1.6v-1.088c0-.848.464-1.296 1.168-1.296.256 0 .528.048.752.192zm6.976 6.832c0-2.176-1.328-3.696-3.264-3.696-1.952 0-3.264 1.52-3.264 3.696s1.312 3.696 3.264 3.696c1.936 0 3.264-1.52 3.264-3.696zm-1.216 0c0 1.552-.768 2.64-2.048 2.64s-2.048-1.088-2.048-2.64.768-2.64 2.048-2.64 2.048 1.088 2.048 2.64zm6.496-3.584c-.128-.064-.384-.112-.688-.112-.784 0-1.456.464-1.76 1.072v-.928h-1.2V50.4h1.2v-4.768c.24-.832.896-1.328 1.648-1.328.304 0 .608.064.8.192zm8.672 0c-.128-.064-.384-.112-.688-.112-.784 0-1.456.464-1.76 1.072v-.928h-1.2V50.4h1.2v-4.768c.24-.832.896-1.328 1.648-1.328.304 0 .608.064.8.192zm6.848 3.792v-.432c0-2.08-.992-3.472-2.912-3.472-1.888 0-3.168 1.552-3.168 3.76 0 2.24 1.376 3.632 3.424 3.632.848 0 1.584-.176 2.16-.624v-1.104c-.64.48-1.216.672-2.016.672-1.296 0-2.336-.784-2.384-2.432zm-2.896-2.88c1.152 0 1.68.896 1.728 1.936h-3.664c.224-1.312.992-1.936 1.936-1.936zm9.568.112c-.336-.672-1.024-1.136-1.92-1.136-.88 0-1.568.416-1.92.976v-.832h-1.2V50.4h1.2v-4.896c.224-.768.848-1.264 1.568-1.264.912 0 1.344.656 1.344 1.648V50.4h1.2v-4.896c.224-.768.848-1.264 1.568-1.264.912 0 1.344.656 1.344 1.648V50.4h1.216v-4.704c0-1.536-.8-2.544-2.24-2.544-.992 0-1.712.496-2.16 1.136zm12.448 2.56c0-2.176-1.328-3.696-3.264-3.696-1.952 0-3.264 1.52-3.264 3.696s1.312 3.696 3.264 3.696c1.936 0 3.264-1.52 3.264-3.696zm-1.216 0c0 1.552-.768 2.64-2.048 2.64s-2.048-1.088-2.048-2.64.768-2.64 2.048-2.64 2.048 1.088 2.048 2.64zm4.72-2.528h1.648v-1.024h-1.648v-1.872h-1.2v1.872H66.24v1.024h1.488v6.08h1.2zm8.544 2.736v-.432c0-2.08-.992-3.472-2.912-3.472-1.888 0-3.168 1.552-3.168 3.76 0 2.24 1.376 3.632 3.424 3.632.848 0 1.584-.176 2.16-.624v-1.104c-.64.48-1.216.672-2.016.672-1.296 0-2.336-.784-2.384-2.432zm-2.896-2.88c1.152 0 1.68.896 1.728 1.936H72.64c.224-1.312.992-1.936 1.936-1.936zm12.576-.88H86.08l-1.456 5.424-1.568-5.424h-1.2l2.096 7.104h1.168l1.488-5.392L88.08 50.4h1.168l2.096-7.104h-1.168l-1.568 5.424zm11.568 3.552c0-2.176-1.328-3.696-3.264-3.696-1.952 0-3.264 1.52-3.264 3.696s1.312 3.696 3.264 3.696c1.936 0 3.264-1.52 3.264-3.696zm-1.216 0c0 1.552-.768 2.64-2.048 2.64s-2.048-1.088-2.048-2.64.768-2.64 2.048-2.64 2.048 1.088 2.048 2.64zM104 43.264c-.128-.064-.384-.112-.688-.112-.784 0-1.456.464-1.76 1.072v-.928h-1.2V50.4h1.2v-4.768c.24-.832.896-1.328 1.648-1.328.304 0 .608.064.8.192zm3.904 3.28l3.488-3.248h-1.552l-3.152 2.992V40h-1.2v10.4h1.2v-3.52l3.28 3.52h1.488zm14.256.304c0-2.176-1.328-3.696-3.264-3.696-1.952 0-3.264 1.52-3.264 3.696s1.312 3.696 3.264 3.696c1.936 0 3.264-1.52 3.264-3.696zm-1.216 0c0 1.552-.768 2.64-2.048 2.64s-2.048-1.088-2.048-2.64.768-2.64 2.048-2.64 2.048 1.088 2.048 2.64zm2.848 3.552h1.2v-4.816c.256-.768.976-1.328 1.808-1.328 1.072 0 1.568.688 1.568 1.68V50.4h1.216v-4.656c0-1.552-.88-2.592-2.496-2.592-.912 0-1.68.48-2.096 1.04v-.896h-1.2zm11.36 0h1.2v-4.816c.256-.768.976-1.328 1.808-1.328 1.072 0 1.568.688 1.568 1.68V50.4h1.216v-4.656c0-1.552-.88-2.592-2.496-2.592-.912 0-1.68.48-2.096 1.04v-.896h-1.2zm13.392-3.344v-.432c0-2.08-.992-3.472-2.912-3.472-1.888 0-3.168 1.552-3.168 3.76 0 2.24 1.376 3.632 3.424 3.632.848 0 1.584-.176 2.16-.624v-1.104c-.64.48-1.216.672-2.016.672-1.296 0-2.336-.784-2.384-2.432zm-2.896-2.88c1.152 0 1.68.896 1.728 1.936h-3.664c.224-1.312.992-1.936 1.936-1.936zm9.04-.88h-1.072l-1.456 5.424-1.568-5.424h-1.2l2.096 7.104h1.168l1.488-5.392 1.472 5.392h1.168l2.096-7.104h-1.168l-1.568 5.424zm16-2.72v4.208h-5.552v-4.208h-1.264V50.4h1.264v-4.48h5.552v4.48h1.264v-9.824zm7.232 5.888c1.984 0 3.28-1.024 3.28-2.944 0-1.936-1.296-2.944-3.28-2.944h-3.632V50.4h1.264v-3.936zm2.032-2.944c0 1.104-.72 1.824-2.048 1.824h-2.352V41.68h2.352c1.328 0 2.048.72 2.048 1.84zm2.928-2.944V50.4h6.256v-1.136h-5.008V45.92h4.544V44.8h-4.544v-3.104h5.008v-1.12zm15.408 5.888c1.984 0 3.28-1.024 3.28-2.944 0-1.936-1.296-2.944-3.28-2.944h-3.632V50.4h1.264v-3.936zm2.032-2.944c0 1.104-.72 1.824-2.048 1.824h-2.352V41.68h2.352c1.328 0 2.048.72 2.048 1.84zm6.432-.256c-.128-.064-.384-.112-.688-.112-.784 0-1.456.464-1.76 1.072v-.928h-1.2V50.4h1.2v-4.768c.24-.832.896-1.328 1.648-1.328.304 0 .608.064.8.192zm7.296 3.584c0-2.176-1.328-3.696-3.264-3.696-1.952 0-3.264 1.52-3.264 3.696s1.312 3.696 3.264 3.696c1.936 0 3.264-1.52 3.264-3.696zm-1.216 0c0 1.552-.768 2.64-2.048 2.64s-2.048-1.088-2.048-2.64.768-2.64 2.048-2.64 2.048 1.088 2.048 2.64zm2.944 3.552h6.272v-1.136h-5.008v-8.688h-1.264zm9.168-7.104h-1.2V50.4h1.2zm.176-2.144a.772.772 0 0 0-.784-.768.768.768 0 0 0-.768.768c0 .416.352.768.768.768a.782.782 0 0 0 .784-.768zm5.92 5.456c-.304-.272-1.04-.576-1.776-.576-1.52 0-2.704.896-2.704 2.224 0 1.408 1.184 2.272 2.64 2.272.832 0 1.568-.368 1.84-.656v.528h1.168v-4.816c0-1.504-.992-2.432-2.672-2.432-.88 0-1.728.256-2.208.592v1.136c.592-.384 1.232-.624 2.016-.624 1.04 0 1.696.544 1.696 1.424zm0 2.032c-.192.528-.896.88-1.648.88-.864 0-1.696-.4-1.696-1.264 0-.848.832-1.232 1.696-1.232.752 0 1.456.352 1.648.88zm3.216 1.76h1.2v-4.816c.256-.768.976-1.328 1.808-1.328 1.072 0 1.568.688 1.568 1.68V50.4h1.216v-4.656c0-1.552-.88-2.592-2.496-2.592-.912 0-1.68.48-2.096 1.04v-.896h-1.2zm9.808-6.08h1.648v-1.024h-1.648v-1.872h-1.2v1.872h-1.488v1.024h1.488v6.08h1.2zM82 62.496h-1.072l-1.456 5.424-1.568-5.424h-1.2L78.8 69.6h1.168l1.488-5.392 1.472 5.392h1.168l2.096-7.104h-1.168l-1.568 5.424zm6.752 0h-1.2V69.6h1.2zm.176-2.144a.772.772 0 0 0-.784-.768.768.768 0 0 0-.768.768c0 .416.352.768.768.768a.782.782 0 0 0 .784-.768zm3.952 3.168h1.648v-1.024H92.88v-1.872h-1.2v1.872h-1.488v1.024h1.488v6.08h1.2zm3.104 6.08h1.2v-4.816c.256-.768.976-1.328 1.808-1.328 1.072 0 1.568.688 1.568 1.68V69.6h1.216v-4.656c0-1.552-.88-2.592-2.496-2.592-.912 0-1.68.48-2.096 1.04V59.2h-1.2zm14.464-9.824l-3.84 9.824h1.28l1.12-2.96h4.048l1.136 2.96h1.28l-3.84-9.824zm.576 1.568l1.6 4.192h-3.2zm10.624 6.064l3.328-5.36V69.6h1.232v-9.824h-1.104l-3.472 5.648-3.488-5.648h-1.168V69.6h1.232v-7.552l3.376 5.36zm8.16 1.056v-7.568h1.872c2.224 0 3.536 1.488 3.536 3.792s-1.312 3.776-3.536 3.776zm-1.264 1.136h3.152c2.88 0 4.768-1.92 4.768-4.912s-1.888-4.912-4.768-4.912h-3.152zm13.216-9.824V69.6h6.256v-1.136h-5.008V65.12h4.544V64h-4.544v-3.104h5.008v-1.12zm11.872 5.888c1.984 0 3.28-1.024 3.28-2.944 0-1.936-1.296-2.944-3.28-2.944H150V69.6h1.264v-3.936zm2.032-2.944c0 1.104-.72 1.824-2.048 1.824h-2.352V60.88h2.352c1.328 0 2.048.72 2.048 1.84zm6.128 1.696l-2.832-4.64h-1.376l3.552 5.776V69.6h1.248v-4.048l3.584-5.776h-1.344zm4.528.272c0 3.072 1.984 5.056 4.608 5.056 1.136 0 2-.32 2.64-.848v-1.328c-.8.72-1.616 1.04-2.624 1.04-1.984 0-3.36-1.552-3.36-3.92s1.376-3.92 3.36-3.92c1.008 0 1.824.304 2.624 1.04V60.48c-.64-.528-1.504-.848-2.64-.848-2.624 0-4.608 1.984-4.608 5.056zm8.448-4.176h1.312v3.328h.864v-3.328h1.296v-.736h-3.472zm6.16 2.416l1.136-1.728v2.64h.832v-4.064h-.768l-1.248 1.904-1.232-1.904h-.784v4.064h.832V61.2l1.152 1.728z" fill="#fff"/></svg>