<svg width="299" height="120" viewBox="0 0 299 120" xmlns="http://www.w3.org/2000/svg"><path d="M29.26 41.44L19.98 66h7.6l1.28-3.56h8.64L38.78 66h7.84l-9.28-24.56zm3.92 9.08l2.04 5.64h-4.08zm12.4 3.2c0 7.68 5.16 12.68 13.04 12.68 2.48 0 4.52-.52 6.08-1.44v-7.32a10.034 10.034 0 0 1-5.28 1.52c-3.76 0-6.08-1.88-6.08-5.44 0-3.6 2.32-5.48 6.08-5.48 1.76 0 3.6.52 5.28 1.56v-7.32c-1.56-.92-3.6-1.44-6.08-1.44-7.88 0-13.04 5-13.04 12.68zm20.8 0c0 7.68 5.16 12.68 13.04 12.68 2.48 0 4.52-.52 6.08-1.44v-7.32a10.034 10.034 0 0 1-5.28 1.52c-3.76 0-6.08-1.88-6.08-5.44 0-3.6 2.32-5.48 6.08-5.48 1.76 0 3.6.52 5.28 1.56v-7.32c-1.56-.92-3.6-1.44-6.08-1.44-7.88 0-13.04 5-13.04 12.68zm21.56-12.28V66h18.48v-6.64H95.58v-2.6h9.92v-6.4h-9.92v-2.32h10.84v-6.6zM108.82 66h18.32v-6.64h-10.56V41.44h-7.76zm20.52-24.56V66h18.48v-6.64h-10.84v-2.6h9.92v-6.4h-9.92v-2.32h10.84v-6.6zm30.32 17.52l4.12 7.04h8.52l-5.08-8.2c2.6-1.36 4.2-3.92 4.2-7.4 0-5.68-3.84-8.96-9.24-8.96h-11.96V66h7.64v-7.04zm-1.8-11.08h3.28c2 0 2.76 1 2.76 2.52 0 1.48-.76 2.48-2.76 2.48h-3.28zm23.72-6.44L172.3 66h7.6l1.28-3.56h8.64L191.1 66h7.84l-9.28-24.56zm3.92 9.08l2.04 5.64h-4.08zm11.2-2.48h7.24V66h7.76V48.04h7.24v-6.6H196.7zm31.88-6.6h-7.76V66h7.76zm25.44 0h-7.48v11.44l-8.08-11.44h-7.24V66h7.48V53.72L247.66 66h6.36zm15.04 18.04c-3.08 0-5.4-2.12-5.4-5.64 0-3.64 2.44-5.6 5.84-5.6 3.2 0 5.48.88 7.24 1.96v-7.36c-1.84-1.08-4.56-1.8-7.24-1.8-8.24 0-13.6 5-13.6 12.8 0 7.36 5 12.56 12.88 12.56 3.56 0 6.68-.96 9.2-3.04V51.88h-9.64v6.08h2.92v1.08c-.52.28-1.28.44-2.2.44z"/></svg>